<svg version="1.1" xmlns="http://www.w3.org/2000/svg" viewBox="0 0 870.7708062065974 636.8391418457024" width="870.7708062065974" height="636.8391418457024">
  <!-- svg-source:excalidraw -->
  <rect x="0" y="0" width="870.7708062065974" height="636.8391418457024" fill="#17181c"/><g transform="translate(550.6123369698821 157.58070120277694) rotate(0 61.958648681640625 31.1981201171875)" stroke="none"><path fill="#ffffff" d="M -8.69,-6.24 Q -8.69,-6.24 -6.09,-9.98 -3.48,-13.72 0.45,-18.73 4.39,-23.73 9.05,-27.66 13.72,-31.59 20.12,-34.52 26.53,-37.45 32.75,-39.27 38.97,-41.08 45.19,-41.85 51.40,-42.61 56.87,-42.82 62.34,-43.03 69.28,-42.21 76.21,-41.39 80.87,-40.17 85.53,-38.95 90.19,-37.30 94.85,-35.65 99.38,-33.29 103.91,-30.92 107.34,-28.15 110.77,-25.38 114.99,-20.72 119.21,-16.06 123.33,-9.98 127.46,-3.90 130.70,1.10 133.95,6.11 136.44,11.65 138.93,17.19 140.41,23.15 141.88,29.12 142.31,35.01 142.73,40.90 141.82,48.83 140.91,56.76 139.04,62.14 137.17,67.52 132.42,75.10 127.67,82.68 123.98,86.95 120.29,91.22 115.99,94.25 111.69,97.28 105.65,99.34 99.61,101.41 95.30,102.41 90.99,103.41 83.88,103.78 76.76,104.14 69.50,104.75 62.24,105.36 53.82,105.03 45.41,104.70 37.54,103.66 29.67,102.62 23.36,100.93 17.06,99.24 12.44,96.75 7.83,94.25 4.37,90.83 0.91,87.42 -2.32,83.09 -5.56,78.76 -8.49,73.35 -11.42,67.94 -13.51,62.75 -15.61,57.55 -16.78,51.44 -17.95,45.33 -18.43,38.50 -18.90,31.67 -18.48,27.04 -18.05,22.41 -15.81,15.47 -13.58,8.52 -12.22,6.70 -10.87,4.88 -9.00,3.59 -7.14,2.30 -4.96,1.67 -2.78,1.04 -0.51,1.14 1.74,1.24 3.86,2.06 5.97,2.88 7.72,4.33 9.46,5.78 10.65,7.71 11.84,9.65 12.35,11.86 12.86,14.07 12.63,16.32 12.41,18.58 11.48,20.65 10.55,22.72 9.00,24.38 7.46,26.04 5.47,27.12 3.47,28.20 1.24,28.59 -0.99,28.98 -3.23,28.64 -5.47,28.29 -7.48,27.25 -9.50,26.21 -11.07,24.58 -12.65,22.95 -13.62,20.90 -14.60,18.85 -14.86,16.60 -15.13,14.34 -14.67,12.12 -14.20,9.90 -13.05,7.95 -11.90,5.99 -10.19,4.51 -8.47,3.02 -6.37,2.16 -4.27,1.30 -2.01,1.16 0.24,1.01 2.43,1.60 4.63,2.18 6.52,3.44 8.41,4.69 9.80,6.48 11.19,8.28 11.93,10.42 12.68,12.56 12.70,14.83 12.72,17.10 12.02,19.25 11.31,21.41 11.32,21.41 11.32,21.41 9.96,26.36 8.60,31.32 9.05,38.26 9.49,45.21 11.28,50.79 13.06,56.38 16.01,61.79 18.95,67.20 22.40,71.09 25.85,74.99 29.95,76.29 34.05,77.59 40.23,78.46 46.40,79.32 53.66,79.27 60.92,79.22 67.54,78.64 74.16,78.05 79.39,77.18 84.62,76.32 91.29,74.77 97.95,73.22 101.81,69.92 105.66,66.61 109.03,60.81 112.39,55.00 113.83,48.34 115.27,41.68 114.79,35.92 114.31,30.15 112.50,25.04 110.68,19.92 108.01,15.69 105.34,11.45 101.71,6.22 98.09,1.00 94.47,-3.06 90.86,-7.13 86.33,-9.55 81.81,-11.98 76.47,-13.87 71.14,-15.76 66.86,-16.48 62.59,-17.20 57.63,-17.21 52.66,-17.22 46.16,-16.64 39.66,-16.06 34.78,-14.42 29.91,-12.79 25.13,-10.10 20.35,-7.42 17.23,-4.25 14.12,-1.08 11.40,2.58 8.69,6.24 7.82,7.19 6.94,8.14 5.87,8.85 4.79,9.56 3.58,10.00 2.36,10.43 1.08,10.56 -0.19,10.70 -1.47,10.52 -2.75,10.34 -3.95,9.86 -5.14,9.38 -6.19,8.62 -7.24,7.87 -8.08,6.89 -8.92,5.91 -9.49,4.76 -10.07,3.60 -10.36,2.34 -10.64,1.09 -10.62,-0.19 -10.59,-1.48 -10.26,-2.73 -9.93,-3.98 -9.31,-5.11 -8.69,-6.24 -8.69,-6.24 L -8.69,-6.24 Z"/></g><g transform="translate(552.0144976144134 449.45641143004957) rotate(0 76.62661743164062 -65.76617431640625)" stroke="none"><path fill="#ffffff" d="M -9.80,0.31 Q -9.80,0.31 -9.59,-7.77 -9.38,-15.86 -9.61,-21.43 -9.85,-26.99 -9.65,-34.54 -9.46,-42.09 -9.71,-51.06 -9.96,-60.03 -9.49,-67.40 -9.03,-74.78 -8.22,-79.61 -7.41,-84.44 -6.05,-91.72 -4.68,-99.00 -3.21,-104.15 -1.74,-109.30 0.31,-114.40 2.36,-119.49 4.68,-124.37 7.00,-129.25 10.18,-134.15 13.35,-139.05 15.66,-142.71 17.96,-146.37 20.64,-150.86 23.32,-155.34 26.08,-159.06 28.83,-162.78 32.56,-167.18 36.28,-171.58 39.98,-175.74 43.68,-179.89 48.00,-183.06 52.32,-186.22 56.24,-188.12 60.16,-190.01 64.78,-191.05 69.40,-192.10 74.80,-191.41 80.19,-190.72 84.32,-189.50 88.45,-188.28 95.24,-183.63 102.02,-178.98 106.32,-173.96 110.62,-168.94 114.26,-164.68 117.89,-160.42 121.05,-156.53 124.20,-152.65 129.04,-145.28 133.88,-137.91 136.72,-132.03 139.56,-126.15 142.59,-117.99 145.63,-109.82 149.17,-102.65 152.71,-95.47 155.58,-87.86 158.45,-80.24 159.73,-75.71 161.01,-71.17 162.56,-64.73 164.11,-58.28 164.90,-51.72 165.69,-45.17 165.59,-38.20 165.50,-31.24 165.62,-26.62 165.75,-22.00 166.18,-17.53 166.61,-13.07 167.19,-8.74 167.77,-4.42 168.31,0.96 168.84,6.36 169.33,11.30 169.83,16.25 170.10,22.19 170.38,28.13 170.56,33.33 170.74,38.54 165.94,47.75 161.14,56.97 154.46,56.45 147.78,55.94 140.22,52.34 132.66,48.74 126.77,46.39 120.88,44.03 115.69,42.49 110.50,40.95 102.04,39.34 93.59,37.73 87.20,36.98 80.81,36.23 76.13,35.74 71.45,35.25 65.67,34.40 59.89,33.55 54.77,32.75 49.65,31.94 44.90,30.95 40.15,29.96 35.39,28.87 30.64,27.78 25.94,26.52 21.23,25.25 16.44,24.07 11.66,22.89 6.38,22.13 1.11,21.36 -3.24,20.44 -7.60,19.52 -11.51,9.59 -15.42,-0.34 -14.38,-2.69 -13.34,-5.04 -11.82,-6.70 -10.29,-8.36 -8.32,-9.44 -6.34,-10.53 -4.12,-10.92 -1.90,-11.32 0.31,-10.99 2.54,-10.65 4.55,-9.63 6.55,-8.60 8.13,-6.99 9.70,-5.37 10.67,-3.34 11.65,-1.31 11.92,0.92 12.20,3.15 11.75,5.36 11.29,7.57 10.16,9.51 9.03,11.46 7.33,12.94 5.63,14.43 3.55,15.29 1.47,16.15 -0.77,16.31 -3.01,16.46 -5.19,15.89 -7.37,15.32 -9.26,14.08 -11.14,12.84 -12.53,11.07 -13.92,9.29 -14.66,7.17 -15.41,5.04 -15.45,2.79 -15.48,0.54 -14.79,-1.60 -14.10,-3.74 -12.76,-5.55 -11.42,-7.37 -9.58,-8.66 -7.73,-9.95 -5.57,-10.58 -3.41,-11.22 -1.15,-11.13 1.09,-11.04 3.19,-10.23 5.30,-9.43 7.03,-7.99 8.77,-6.56 9.96,-4.64 11.15,-2.73 11.66,-0.54 12.18,1.65 11.97,3.89 11.75,6.13 10.84,8.19 9.92,10.25 9.92,10.25 9.92,10.25 8.65,11.41 7.37,12.58 3.82,2.95 0.28,-6.67 4.85,-5.57 9.42,-4.47 13.70,-3.42 17.99,-2.37 22.47,-1.04 26.96,0.28 35.14,2.28 43.31,4.29 48.82,5.76 54.33,7.24 59.38,8.32 64.43,9.41 69.71,10.47 74.98,11.54 79.61,12.48 84.23,13.41 91.24,14.72 98.24,16.03 102.45,16.99 106.66,17.96 111.47,18.99 116.28,20.03 122.17,21.55 128.05,23.08 134.73,25.02 141.40,26.97 153.62,31.31 165.83,35.65 159.67,35.55 153.50,35.46 148.87,37.04 144.23,38.62 144.35,33.62 144.47,28.62 144.44,23.65 144.41,18.69 144.03,11.48 143.65,4.27 143.30,-3.35 142.95,-10.98 142.94,-16.22 142.92,-21.46 142.83,-25.92 142.75,-30.38 141.89,-40.29 141.04,-50.20 140.46,-55.36 139.88,-60.51 138.40,-66.68 136.92,-72.86 134.69,-79.84 132.46,-86.83 129.55,-93.78 126.65,-100.74 122.46,-107.67 118.27,-114.60 115.20,-119.59 112.13,-124.59 108.37,-130.30 104.60,-136.01 101.67,-139.29 98.73,-142.57 95.02,-146.19 91.31,-149.82 86.42,-155.02 81.53,-160.22 77.23,-162.16 72.92,-164.09 68.46,-162.49 63.99,-160.88 60.55,-157.60 57.12,-154.33 54.03,-150.88 50.95,-147.44 48.04,-144.23 45.14,-141.01 42.40,-136.81 39.66,-132.60 36.78,-128.58 33.91,-124.56 30.13,-119.14 26.35,-113.71 23.96,-109.03 21.58,-104.34 19.17,-99.18 16.76,-94.02 14.95,-87.36 13.13,-80.69 12.20,-76.01 11.27,-71.33 10.11,-65.33 8.95,-59.33 8.37,-50.76 7.78,-42.20 8.07,-34.78 8.36,-27.36 8.35,-21.90 8.33,-16.43 9.07,-8.37 9.80,-0.31 9.69,0.86 9.59,2.03 9.21,3.15 8.82,4.27 8.18,5.26 7.54,6.26 6.68,7.07 5.82,7.88 4.80,8.47 3.77,9.05 2.63,9.37 1.49,9.69 0.31,9.73 -0.86,9.76 -2.02,9.52 -3.18,9.27 -4.24,8.76 -5.30,8.24 -6.21,7.49 -7.12,6.73 -7.83,5.78 -8.53,4.83 -8.98,3.74 -9.44,2.65 -9.62,1.48 -9.80,0.31 -9.80,0.31 L -9.80,0.31 Z"/></g><g transform="translate(765.8896466194062 245.34207128022058) rotate(0 -17.869634706638294 49.003433063514166)" stroke="none"><path fill="#ffffff" d="M 8.71,2.07 Q 8.71,2.07 6.77,9.27 4.83,16.48 1.80,24.53 -1.23,32.57 -5.35,42.30 -9.47,52.02 -12.12,58.84 -14.77,65.66 -16.90,71.51 -19.03,77.37 -20.52,81.83 -22.02,86.29 -23.50,91.45 -24.98,96.62 -27.24,100.86 -29.51,105.09 -28.75,104.65 -27.99,104.21 -28.85,105.04 -29.72,105.87 -30.76,106.47 -31.80,107.07 -32.96,107.40 -34.11,107.73 -35.31,107.78 -36.51,107.82 -37.69,107.58 -38.86,107.34 -39.95,106.82 -41.03,106.30 -41.96,105.54 -42.89,104.78 -43.61,103.82 -44.33,102.86 -44.79,101.75 -45.26,100.65 -45.45,99.46 -45.64,98.28 -45.54,97.08 -45.45,95.88 -45.06,94.75 -44.68,93.61 -44.04,92.59 -43.39,91.58 -44.52,92.77 -45.65,93.95 -45.30,92.36 -44.95,90.77 -44.11,89.38 -43.26,87.99 -42.02,86.93 -40.78,85.88 -39.26,85.28 -37.75,84.68 -36.13,84.60 -34.50,84.51 -32.93,84.95 -31.36,85.39 -30.02,86.30 -28.67,87.22 -27.69,88.52 -26.70,89.82 -26.19,91.36 -25.67,92.90 -25.67,94.53 -25.67,96.16 -26.20,97.70 -26.72,99.24 -27.71,100.54 -28.69,101.83 -30.04,102.75 -31.39,103.66 -32.96,104.09 -34.53,104.52 -36.16,104.43 -37.78,104.34 -39.30,103.74 -40.81,103.13 -42.05,102.07 -43.29,101.02 -44.12,99.62 -44.96,98.22 -45.31,96.63 -45.66,95.04 -45.48,93.42 -45.30,91.80 -44.61,90.33 -43.92,88.85 -42.80,87.67 -41.68,86.49 -40.24,85.73 -38.80,84.97 -37.19,84.71 -35.59,84.45 -33.98,84.72 -32.37,84.98 -30.93,85.75 -29.50,86.51 -28.38,87.70 -27.26,88.88 -26.58,90.36 -25.90,91.84 -25.73,93.46 -25.55,95.08 -25.55,95.08 -25.55,95.08 -26.77,99.64 -27.98,104.21 -28.85,105.04 -29.72,105.87 -30.76,106.47 -31.80,107.07 -32.95,107.40 -34.11,107.73 -35.31,107.78 -36.51,107.82 -37.68,107.58 -38.86,107.34 -39.94,106.82 -41.03,106.30 -41.96,105.54 -42.89,104.78 -43.60,103.82 -44.32,102.86 -44.79,101.75 -45.26,100.65 -45.45,99.46 -45.64,98.28 -45.54,97.08 -45.45,95.88 -45.06,94.75 -44.68,93.61 -44.04,92.59 -43.39,91.58 -42.82,90.69 -42.24,89.80 -39.73,84.92 -37.22,80.05 -35.16,75.88 -33.11,71.72 -30.62,66.06 -28.13,60.41 -25.44,53.65 -22.76,46.89 -19.40,37.27 -16.04,27.65 -13.89,20.09 -11.73,12.53 -10.22,5.23 -8.71,-2.07 -8.34,-3.08 -7.96,-4.09 -7.35,-4.99 -6.75,-5.88 -5.95,-6.60 -5.14,-7.33 -4.19,-7.84 -3.24,-8.34 -2.19,-8.61 -1.15,-8.88 -0.07,-8.89 1.00,-8.90 2.05,-8.65 3.10,-8.40 4.06,-7.90 5.02,-7.41 5.84,-6.70 6.65,-5.99 7.27,-5.11 7.89,-4.22 8.28,-3.22 8.68,-2.21 8.81,-1.14 8.95,-0.07 8.83,1.00 8.71,2.07 8.71,2.07 L 8.71,2.07 Z"/></g><g transform="translate(766.0822828519543 308.5084771991178) rotate(0 -71.06323331932126 34.550265310462294)" stroke="none"><path fill="#ffffff" d="M 10.37,-2.55 Q 10.37,-2.55 11.54,1.99 12.72,6.54 13.44,11.64 14.15,16.73 14.71,22.69 15.27,28.65 14.25,35.31 13.22,41.97 9.53,48.43 5.84,54.89 0.90,59.89 -4.04,64.89 -9.03,67.97 -14.03,71.05 -18.07,73.13 -22.11,75.21 -26.32,76.78 -30.53,78.36 -34.85,79.32 -39.18,80.28 -47.91,80.51 -56.65,80.73 -61.74,79.34 -66.82,77.94 -71.10,75.83 -75.39,73.72 -81.85,69.42 -88.31,65.12 -98.52,57.44 -108.73,49.76 -113.63,46.58 -118.54,43.40 -123.63,42.81 -128.72,42.22 -134.32,47.45 -139.92,52.69 -141.92,53.38 -143.92,54.08 -146.04,54.10 -148.15,54.12 -150.16,53.46 -152.18,52.80 -153.88,51.54 -155.57,50.27 -156.78,48.53 -157.98,46.79 -158.57,44.76 -159.15,42.72 -159.06,40.61 -158.96,38.49 -158.20,36.52 -157.43,34.54 -156.08,32.92 -154.72,31.29 -152.92,30.18 -151.12,29.07 -149.05,28.60 -146.99,28.12 -144.88,28.33 -142.78,28.54 -140.85,29.41 -138.92,30.28 -137.37,31.73 -135.82,33.17 -134.81,35.03 -133.80,36.89 -133.43,38.98 -133.07,41.06 -133.40,43.15 -133.72,45.25 -134.69,47.13 -135.67,49.01 -137.19,50.48 -138.71,51.95 -140.63,52.85 -142.54,53.76 -144.64,54.01 -146.74,54.26 -148.82,53.82 -150.89,53.39 -152.71,52.31 -154.54,51.24 -155.92,49.64 -157.31,48.03 -158.11,46.08 -158.91,44.12 -159.05,42.00 -159.18,39.89 -158.63,37.84 -158.09,35.80 -156.91,34.04 -155.74,32.27 -154.07,30.98 -152.39,29.68 -152.40,29.68 -152.40,29.68 -152.03,28.20 -151.66,26.73 -146.81,23.04 -141.96,19.35 -137.60,18.83 -133.25,18.31 -128.43,18.21 -123.60,18.12 -119.33,19.30 -115.05,20.48 -111.20,22.88 -107.35,25.27 -102.10,28.37 -96.84,31.46 -82.63,39.85 -68.42,48.24 -63.84,51.12 -59.26,53.99 -54.43,55.09 -49.60,56.18 -44.20,55.60 -38.80,55.02 -32.97,52.58 -27.13,50.15 -22.01,46.61 -16.89,43.08 -13.24,39.04 -9.60,35.00 -8.51,29.78 -7.42,24.57 -7.83,18.13 -8.23,11.68 -9.30,7.12 -10.37,2.55 -10.52,1.27 -10.68,-0.00 -10.52,-1.28 -10.36,-2.56 -9.91,-3.76 -9.45,-4.96 -8.72,-6.02 -7.99,-7.08 -7.02,-7.93 -6.06,-8.79 -4.92,-9.39 -3.78,-9.98 -2.53,-10.29 -1.28,-10.60 0.00,-10.60 1.29,-10.60 2.54,-10.29 3.79,-9.98 4.93,-9.38 6.07,-8.78 7.03,-7.93 7.99,-7.07 8.72,-6.01 9.45,-4.95 9.91,-3.75 10.37,-2.55 10.37,-2.55 L 10.37,-2.55 Z"/></g><g transform="translate(285.55160800383044 142.07462738412204) rotate(0 -42.036069704227316 47.653733897153955)" stroke="none"><path fill="#ffffff" d="M -7.01,8.12 Q -7.01,8.12 -9.96,5.73 -12.91,3.35 -18.25,0.99 -23.58,-1.36 -28.82,-2.63 -34.05,-3.91 -38.92,-4.43 -43.80,-4.96 -48.33,-4.96 -52.86,-4.97 -62.46,0.40 -72.06,5.79 -76.13,9.55 -80.21,13.31 -82.50,19.18 -84.80,25.05 -85.81,30.26 -86.81,35.46 -87.11,39.87 -87.41,44.28 -87.09,51.23 -86.78,58.19 -85.39,63.34 -84.01,68.49 -82.06,72.45 -80.11,76.42 -76.75,80.80 -73.38,85.17 -63.87,90.77 -54.35,96.37 -49.36,98.18 -44.37,99.99 -38.24,100.57 -32.11,101.14 -26.65,98.27 -21.20,95.41 -17.70,91.84 -14.20,88.26 -9.94,82.26 -5.68,76.26 -3.87,72.12 -2.06,67.97 -0.90,62.55 0.25,57.13 -0.08,48.42 -0.41,39.72 -1.18,35.37 -1.95,31.02 -3.24,26.79 -4.52,22.55 -6.00,17.85 -7.47,13.15 -8.40,11.92 -9.33,10.69 -10.12,8.66 -10.91,6.63 -11.01,4.45 -11.11,2.27 -10.51,0.17 -9.91,-1.91 -8.67,-3.71 -7.43,-5.50 -5.69,-6.81 -3.94,-8.11 -1.87,-8.79 0.19,-9.47 2.37,-9.45 4.55,-9.44 6.61,-8.72 8.67,-8.01 10.40,-6.67 12.12,-5.34 13.33,-3.53 14.54,-1.71 15.11,0.38 15.67,2.49 15.54,4.67 15.40,6.84 14.58,8.86 13.75,10.88 12.33,12.53 10.90,14.18 9.03,15.29 7.15,16.40 5.01,16.85 2.88,17.30 0.72,17.05 -1.44,16.79 -3.41,15.86 -5.38,14.93 -6.95,13.42 -8.52,11.90 -9.53,9.97 -10.53,8.03 -10.87,5.88 -11.20,3.72 -10.83,1.57 -10.46,-0.56 -9.42,-2.48 -8.39,-4.40 -6.79,-5.89 -5.20,-7.37 -3.21,-8.27 -1.22,-9.17 0.94,-9.39 3.11,-9.60 5.23,-9.12 7.36,-8.63 9.22,-7.49 11.08,-6.35 12.47,-4.68 13.87,-3.00 13.87,-3.01 13.87,-3.01 16.01,0.95 18.15,4.91 19.63,9.99 21.11,15.08 22.35,20.96 23.59,26.84 24.19,31.58 24.80,36.32 25.81,44.23 26.82,52.15 26.02,57.56 25.22,62.97 23.99,67.40 22.76,71.82 20.39,77.64 18.01,83.47 13.87,89.97 9.73,96.48 6.40,100.83 3.08,105.17 -2.71,110.19 -8.51,115.21 -12.31,117.41 -16.11,119.61 -20.46,121.08 -24.81,122.54 -33.32,122.45 -41.84,122.36 -46.58,121.22 -51.33,120.07 -57.21,118.10 -63.09,116.12 -74.09,111.96 -85.08,107.80 -88.71,104.17 -92.35,100.55 -95.33,96.08 -98.31,91.61 -100.88,86.01 -103.45,80.42 -105.20,73.46 -106.94,66.50 -107.21,58.76 -107.48,51.03 -107.10,46.64 -106.72,42.26 -106.00,36.97 -105.28,31.68 -103.89,25.22 -102.50,18.76 -99.18,8.86 -95.85,-1.03 -90.97,-6.26 -86.08,-11.49 -71.66,-20.96 -57.24,-30.43 -52.17,-30.25 -47.11,-30.08 -40.88,-29.41 -34.65,-28.74 -28.08,-27.12 -21.51,-25.51 -14.95,-22.85 -8.40,-20.20 -3.48,-16.73 1.42,-13.27 4.22,-10.69 7.01,-8.12 7.88,-7.16 8.75,-6.20 9.37,-5.07 9.98,-3.93 10.31,-2.68 10.64,-1.42 10.65,-0.13 10.67,1.16 10.37,2.42 10.08,3.68 9.49,4.83 8.91,5.98 8.06,6.96 7.21,7.94 6.16,8.69 5.10,9.44 3.90,9.91 2.69,10.39 1.41,10.56 0.13,10.73 -1.15,10.59 -2.43,10.45 -3.65,10.01 -4.87,9.56 -5.94,8.84 -7.01,8.12 -7.01,8.12 L -7.01,8.12 Z"/></g><g transform="translate(87.13850392760537 273.4321646172359) rotate(0 38.168849525318535 49.24313702076057)" stroke="none"><path fill="#ffffff" d="M 10.62,0 Q 10.62,0 10.61,5.32 10.60,10.65 10.67,15.26 10.74,19.88 11.00,26.38 11.26,32.89 11.51,37.63 11.76,42.38 11.96,47.52 12.16,52.65 12.33,57.41 12.50,62.16 12.64,66.70 12.78,71.23 12.97,76.25 13.15,81.27 13.96,87.06 14.77,92.84 10.71,88.92 6.66,85.00 11.45,84.41 16.25,83.83 22.16,83.85 28.08,83.87 33.32,83.87 38.56,83.86 43.64,83.78 48.73,83.71 53.91,83.61 59.09,83.51 63.46,83.43 67.84,83.35 72.00,83.30 76.16,83.24 78.48,83.62 80.81,84.01 82.89,85.11 84.97,86.21 86.60,87.93 88.22,89.64 89.21,91.78 90.20,93.92 90.45,96.26 90.71,98.60 90.20,100.91 89.69,103.21 88.48,105.23 87.26,107.25 85.46,108.77 83.67,110.30 81.48,111.17 79.29,112.04 76.93,112.17 74.58,112.30 72.31,111.67 70.04,111.04 68.09,109.71 66.13,108.39 64.71,106.51 63.28,104.64 62.53,102.40 61.78,100.17 61.78,97.81 61.78,95.45 62.53,93.22 63.28,90.99 64.71,89.11 66.14,87.23 68.09,85.91 70.04,84.59 72.31,83.96 74.58,83.33 76.94,83.46 79.29,83.58 81.48,84.46 83.67,85.33 85.47,86.86 87.26,88.38 88.48,90.40 89.69,92.42 90.20,94.73 90.71,97.03 90.45,99.37 90.19,101.72 89.20,103.85 88.21,105.99 86.59,107.70 84.97,109.42 82.89,110.52 80.80,111.62 78.48,112.00 76.15,112.38 76.15,112.38 76.16,112.38 72.00,112.33 67.84,112.28 63.46,112.20 59.09,112.12 53.91,112.02 48.73,111.92 43.64,111.84 38.56,111.77 33.34,111.77 28.11,111.77 22.28,111.81 16.45,111.85 10.01,112.05 3.57,112.25 -0.91,110.72 -5.40,109.19 -8.42,104.67 -11.43,100.15 -11.75,95.20 -12.07,90.25 -12.61,85.76 -13.15,81.27 -12.97,76.25 -12.78,71.23 -12.64,66.70 -12.50,62.16 -12.33,57.41 -12.16,52.65 -11.96,47.52 -11.76,42.38 -11.51,37.63 -11.26,32.89 -11.00,26.38 -10.74,19.88 -10.67,15.26 -10.60,10.65 -10.61,5.32 -10.62,0 -10.46,-1.27 -10.31,-2.54 -9.85,-3.73 -9.40,-4.93 -8.67,-5.98 -7.95,-7.04 -6.99,-7.89 -6.03,-8.74 -4.89,-9.33 -3.76,-9.93 -2.52,-10.23 -1.27,-10.54 0.00,-10.54 1.28,-10.54 2.52,-10.23 3.76,-9.93 4.90,-9.33 6.03,-8.74 6.99,-7.89 7.95,-7.04 8.67,-5.98 9.40,-4.93 9.85,-3.73 10.31,-2.54 10.46,-1.26 10.62,0.00 10.62,0.00 L 10.62,0 Z"/></g><g transform="translate(137.3691762079527 346.72270511101215) rotate(0 61.860164026162806 -17.349723608007764)" stroke="none"><path fill="#ffffff" d="M -7.66,-13.22 Q -7.66,-13.22 -4.50,-16.67 -1.33,-20.12 4.21,-24.53 9.76,-28.94 15.35,-30.74 20.95,-32.53 27.09,-33.01 33.24,-33.49 38.43,-32.49 43.61,-31.49 50.35,-29.55 57.09,-27.60 63.13,-25.29 69.17,-22.97 73.30,-21.22 77.42,-19.46 84.63,-18.41 91.83,-17.35 96.05,-20.51 100.28,-23.67 103.50,-27.94 106.73,-32.21 109.94,-36.10 113.15,-39.99 114.87,-41.39 116.59,-42.80 118.67,-43.59 120.75,-44.37 122.98,-44.45 125.20,-44.53 127.33,-43.89 129.46,-43.26 131.28,-41.98 133.10,-40.69 134.41,-38.90 135.72,-37.10 136.39,-34.98 137.06,-32.86 137.02,-30.64 136.98,-28.42 136.23,-26.32 135.48,-24.23 134.10,-22.48 132.72,-20.74 130.86,-19.52 129.00,-18.31 126.84,-17.76 124.69,-17.20 122.47,-17.36 120.25,-17.53 118.20,-18.39 116.15,-19.25 114.48,-20.72 112.82,-22.19 111.71,-24.12 110.60,-26.05 110.16,-28.23 109.72,-30.41 110.00,-32.61 110.29,-34.82 111.26,-36.82 112.23,-38.82 113.79,-40.41 115.35,-41.99 117.33,-43.00 119.32,-44.00 121.52,-44.32 123.72,-44.64 125.91,-44.24 128.09,-43.83 130.04,-42.76 131.98,-41.68 133.48,-40.03 134.98,-38.39 135.88,-36.35 136.77,-34.32 136.97,-32.10 137.17,-29.89 136.65,-27.73 136.13,-25.56 134.95,-23.68 133.77,-21.80 133.77,-21.80 133.77,-21.80 130.60,-18.25 127.43,-14.69 124.45,-11.22 121.48,-7.75 117.92,-4.33 114.37,-0.91 108.78,2.22 103.20,5.35 98.08,6.72 92.97,8.10 83.11,7.61 73.26,7.13 68.23,4.74 63.20,2.35 58.37,0.15 53.55,-2.03 48.87,-3.85 44.19,-5.68 38.50,-7.27 32.82,-8.86 27.67,-9.25 22.52,-9.65 18.35,-7.54 14.18,-5.43 10.92,-2.08 7.66,1.26 6.69,2.08 5.71,2.89 4.56,3.44 3.42,4.00 2.17,4.26 0.93,4.53 -0.33,4.49 -1.60,4.45 -2.83,4.10 -4.05,3.76 -5.16,3.13 -6.26,2.50 -7.19,1.63 -8.11,0.76 -8.80,-0.30 -9.49,-1.37 -9.90,-2.57 -10.32,-3.78 -10.43,-5.04 -10.54,-6.31 -10.35,-7.57 -10.15,-8.83 -9.66,-10.00 -9.18,-11.17 -8.42,-12.20 -7.66,-13.22 -7.66,-13.22 L -7.66,-13.22 Z"/></g><g transform="translate(192.7540266759794 527.1297600153234) rotate(0 68.88058733344519 -29.575454395537747)" stroke="none"><path fill="#ffffff" d="M -1.25,-21.70 Q -1.25,-21.70 4.74,-22.44 10.74,-23.19 16.74,-24.37 22.74,-25.55 31.27,-27.25 39.80,-28.94 45.00,-30.54 50.20,-32.14 54.83,-33.63 59.46,-35.11 66.47,-37.31 73.49,-39.51 80.38,-41.58 87.26,-43.66 92.17,-45.26 97.07,-46.86 101.88,-48.69 106.68,-50.51 111.52,-52.27 116.37,-54.03 120.56,-55.23 124.75,-56.42 128.82,-57.99 132.90,-59.57 135.01,-60.01 137.13,-60.45 139.28,-60.19 141.43,-59.93 143.38,-59.00 145.33,-58.07 146.88,-56.56 148.44,-55.06 149.43,-53.13 150.42,-51.21 150.74,-49.07 151.07,-46.93 150.69,-44.80 150.32,-42.67 149.28,-40.77 148.25,-38.87 146.66,-37.41 145.07,-35.94 143.10,-35.05 141.12,-34.17 138.97,-33.96 136.82,-33.75 134.71,-34.24 132.60,-34.73 130.76,-35.87 128.92,-37.00 127.54,-38.67 126.16,-40.33 125.39,-42.35 124.61,-44.37 124.52,-46.53 124.43,-48.69 125.03,-50.77 125.63,-52.85 126.87,-54.62 128.10,-56.40 129.84,-57.69 131.58,-58.98 133.64,-59.64 135.69,-60.31 137.86,-60.28 140.02,-60.26 142.06,-59.54 144.10,-58.83 145.81,-57.50 147.51,-56.17 148.71,-54.36 149.90,-52.56 150.45,-50.47 151.01,-48.38 150.86,-46.22 150.72,-44.06 149.90,-42.06 149.07,-40.06 147.65,-38.43 146.23,-36.80 144.36,-35.70 142.50,-34.61 142.50,-34.61 142.50,-34.61 137.59,-33.04 132.68,-31.47 128.15,-30.57 123.62,-29.68 119.01,-28.77 114.40,-27.87 108.62,-26.46 102.83,-25.05 97.64,-24.00 92.45,-22.95 85.28,-21.48 78.11,-20.00 71.21,-18.76 64.31,-17.51 59.55,-16.41 54.80,-15.31 49.44,-14.03 44.09,-12.75 35.38,-9.88 26.67,-7.01 19.96,-5.50 13.24,-3.99 7.25,-3.17 1.25,-2.36 0.08,-2.35 -1.09,-2.34 -2.23,-2.61 -3.38,-2.89 -4.42,-3.42 -5.47,-3.96 -6.35,-4.73 -7.24,-5.50 -7.91,-6.47 -8.59,-7.43 -9.01,-8.52 -9.44,-9.62 -9.59,-10.78 -9.74,-11.95 -9.61,-13.12 -9.48,-14.28 -9.07,-15.38 -8.66,-16.49 -8.00,-17.46 -7.34,-18.43 -6.47,-19.22 -5.60,-20.00 -4.56,-20.56 -3.53,-21.11 -2.39,-21.40 -1.25,-21.70 -1.25,-21.70 L -1.25,-21.70 Z"/></g><g transform="translate(186.38267166087041 515.0575827622367) rotate(0 76.42095479794392 -127.421898822032)" stroke="none"><path fill="#ffffff" d="M -8.57,0 Q -8.57,0 -8.37,-7.53 -8.18,-15.06 -7.79,-23.78 -7.40,-32.50 -7.11,-41.03 -6.82,-49.57 -6.87,-56.94 -6.92,-64.31 -7.06,-71.11 -7.20,-77.91 -7.30,-84.75 -7.41,-91.58 -7.66,-97.17 -7.92,-102.76 -8.19,-107.62 -8.46,-112.48 -8.71,-117.08 -8.95,-121.67 -8.86,-126.48 -8.77,-131.28 -8.03,-136.51 -7.30,-141.74 -6.33,-146.58 -5.36,-151.41 -4.42,-155.75 -3.47,-160.08 -2.03,-166.99 -0.59,-173.91 0.48,-178.47 1.56,-183.04 2.96,-187.26 4.36,-191.48 6.40,-196.49 8.44,-201.50 10.74,-206.60 13.04,-211.69 15.93,-217.22 18.81,-222.75 22.16,-227.62 25.52,-232.50 28.65,-236.10 31.78,-239.69 35.58,-243.40 39.37,-247.11 43.35,-251.21 47.32,-255.31 52.74,-259.74 58.16,-264.16 62.91,-266.27 67.66,-268.38 72.39,-268.34 77.13,-268.31 81.46,-265.62 85.80,-262.93 88.89,-259.56 91.99,-256.18 96.31,-251.71 100.63,-247.23 104.33,-243.10 108.02,-238.97 111.37,-234.66 114.72,-230.34 117.08,-226.54 119.44,-222.73 121.60,-218.33 123.76,-213.94 125.76,-209.58 127.77,-205.22 130.82,-193.71 133.87,-182.21 135.59,-176.15 137.30,-170.10 138.99,-163.73 140.69,-157.36 142.02,-153.16 143.36,-148.96 145.31,-143.80 147.26,-138.64 149.38,-132.90 151.50,-127.16 152.80,-122.05 154.11,-116.93 155.75,-110.94 157.40,-104.95 158.70,-99.82 160.00,-94.69 161.28,-89.77 162.56,-84.84 163.86,-77.96 165.15,-71.08 165.76,-65.75 166.36,-60.43 166.42,-55.28 166.48,-50.14 166.07,-45.68 165.65,-41.21 165.55,-38.64 165.46,-36.06 165.06,-33.81 164.65,-31.56 163.55,-29.56 162.45,-27.55 160.77,-26.00 159.09,-24.45 157.00,-23.52 154.91,-22.59 152.63,-22.38 150.36,-22.16 148.13,-22.69 145.90,-23.21 143.96,-24.42 142.02,-25.63 140.57,-27.39 139.11,-29.15 138.29,-31.29 137.48,-33.43 137.39,-35.71 137.30,-38.00 137.94,-40.19 138.58,-42.38 139.89,-44.26 141.20,-46.13 143.04,-47.49 144.89,-48.85 147.06,-49.55 149.24,-50.24 151.53,-50.21 153.81,-50.18 155.97,-49.42 158.13,-48.66 159.93,-47.25 161.73,-45.84 162.98,-43.92 164.24,-42.01 164.82,-39.80 165.40,-37.59 165.24,-35.31 165.08,-33.03 164.21,-30.91 163.33,-28.80 161.82,-27.08 160.32,-25.36 158.34,-24.21 156.36,-23.06 154.12,-22.60 151.88,-22.14 149.61,-22.42 147.35,-22.70 145.28,-23.69 143.22,-24.68 141.59,-26.28 139.95,-27.88 138.91,-29.91 137.87,-31.95 137.53,-34.21 137.19,-36.47 137.19,-36.47 137.19,-36.47 137.44,-40.43 137.68,-44.39 138.31,-48.95 138.94,-53.51 139.02,-58.23 139.10,-62.96 138.37,-68.24 137.65,-73.51 136.47,-78.43 135.29,-83.35 134.11,-88.47 132.92,-93.60 131.82,-98.47 130.73,-103.34 129.82,-107.58 128.90,-111.83 128.24,-116.14 127.58,-120.44 126.23,-125.62 124.88,-130.80 123.20,-136.51 121.53,-142.23 120.30,-146.36 119.06,-150.48 116.83,-156.47 114.60,-162.45 112.37,-168.11 110.13,-173.78 105.90,-182.72 101.67,-191.65 99.63,-196.59 97.60,-201.53 95.38,-206.21 93.17,-210.89 89.84,-215.45 86.52,-220.00 83.12,-223.70 79.73,-227.39 75.20,-232.11 70.66,-236.82 67.83,-240.15 64.99,-243.48 69.25,-242.21 73.50,-240.93 68.83,-237.20 64.17,-233.46 59.56,-229.14 54.96,-224.82 51.72,-221.97 48.48,-219.13 44.68,-214.52 40.88,-209.91 38.29,-205.40 35.69,-200.89 33.17,-195.97 30.64,-191.05 28.51,-186.78 26.37,-182.51 24.18,-177.63 21.99,-172.76 20.30,-167.64 18.62,-162.51 16.33,-154.71 14.05,-146.91 12.91,-142.66 11.77,-138.40 10.36,-130.03 8.95,-121.67 8.71,-117.08 8.46,-112.48 8.19,-107.62 7.92,-102.76 7.66,-97.17 7.41,-91.58 7.30,-84.75 7.20,-77.91 7.06,-71.11 6.92,-64.31 6.87,-56.94 6.82,-49.57 7.11,-41.03 7.40,-32.50 7.79,-23.78 8.18,-15.06 8.37,-7.53 8.57,0 8.44,1.02 8.32,2.05 7.95,3.01 7.58,3.98 7.00,4.83 6.41,5.68 5.64,6.36 4.86,7.05 3.95,7.53 3.03,8.01 2.03,8.26 1.03,8.50 -0.00,8.50 -1.03,8.50 -2.03,8.26 -3.03,8.01 -3.95,7.53 -4.86,7.05 -5.64,6.36 -6.41,5.68 -7.00,4.83 -7.58,3.98 -7.95,3.01 -8.32,2.05 -8.44,1.02 -8.57,-0.00 -8.57,-0.00 L -8.57,0 Z"/></g><g transform="translate(386.03781806098107 588.8517422146272) rotate(0 40.9130859375 -268.81083170572924)" stroke="none"><path fill="#ffffff" d="M -4.90,-4.61 Q -4.90,-4.61 3.45,-13.21 11.82,-21.81 18.23,-29.39 24.64,-36.98 28.53,-42.29 32.42,-47.61 35.23,-51.86 38.05,-56.11 42.55,-63.02 47.04,-69.93 51.54,-80.45 56.05,-90.97 59.25,-100.87 62.45,-110.77 65.09,-120.47 67.73,-130.16 69.47,-140.39 71.22,-150.61 72.69,-167.56 74.15,-184.51 74.80,-204.28 75.44,-224.05 72.52,-246.31 69.60,-268.58 66.84,-281.11 64.09,-293.64 61.41,-301.94 58.74,-310.24 55.30,-318.37 51.86,-326.49 47.83,-336.39 43.80,-346.28 37.88,-360.69 31.96,-375.11 26.77,-389.24 21.58,-403.38 18.88,-409.98 16.18,-416.57 13.85,-424.29 11.52,-432.00 10.01,-440.15 8.51,-448.30 7.50,-454.13 6.49,-459.95 6.31,-465.22 6.13,-470.48 7.89,-477.33 9.64,-484.19 16.34,-494.61 23.04,-505.04 32.53,-512.64 42.02,-520.24 46.36,-524.10 50.70,-527.95 55.52,-533.60 60.34,-539.24 61.32,-540.64 62.31,-542.05 63.50,-543.01 64.70,-543.97 66.13,-544.50 67.57,-545.03 69.10,-545.07 70.63,-545.12 72.10,-544.67 73.56,-544.22 74.81,-543.33 76.05,-542.44 76.95,-541.20 77.84,-539.96 78.30,-538.49 78.75,-537.03 78.71,-535.50 78.67,-533.97 78.14,-532.53 77.62,-531.09 76.66,-529.90 75.70,-528.70 74.41,-527.87 73.13,-527.05 71.64,-526.68 70.15,-526.30 68.63,-526.42 67.10,-526.55 65.69,-527.15 64.29,-527.75 63.14,-528.77 62.00,-529.79 61.25,-531.13 60.49,-532.46 60.20,-533.96 59.91,-535.47 60.11,-536.98 60.32,-538.50 60.99,-539.87 61.67,-541.25 62.75,-542.33 63.84,-543.42 65.21,-544.10 66.58,-544.78 68.09,-544.99 69.61,-545.20 71.12,-544.91 72.62,-544.63 73.96,-543.88 75.29,-543.12 76.31,-541.99 77.34,-540.85 77.95,-539.44 78.55,-538.04 78.68,-536.51 78.81,-534.98 78.44,-533.50 78.07,-532.01 77.25,-530.72 76.43,-529.43 76.43,-529.43 76.43,-529.43 75.14,-528.29 73.86,-527.15 67.28,-521.44 60.70,-515.73 56.16,-512.32 51.61,-508.91 43.57,-501.65 35.53,-494.39 30.15,-487.03 24.77,-479.67 22.39,-470.51 20.01,-461.36 20.20,-455.89 20.38,-450.42 21.68,-442.89 22.99,-435.35 25.07,-427.96 27.16,-420.56 29.33,-413.79 31.49,-407.02 36.61,-393.07 41.74,-379.13 47.68,-364.71 53.61,-350.29 57.63,-340.46 61.65,-330.63 65.27,-322.08 68.89,-313.52 71.73,-304.74 74.57,-295.96 77.46,-282.98 80.34,-269.99 83.37,-246.86 86.39,-223.74 85.81,-203.66 85.24,-183.58 83.83,-166.18 82.42,-148.78 80.72,-138.00 79.02,-127.22 76.52,-117.21 74.02,-107.20 70.91,-96.67 67.80,-86.14 63.21,-74.54 58.62,-62.94 54.13,-55.04 49.64,-47.14 46.17,-43.28 42.70,-39.42 38.34,-34.37 33.97,-29.31 27.51,-21.22 21.04,-13.13 12.97,-4.26 4.90,4.61 4.28,5.13 3.65,5.65 2.92,6.00 2.19,6.36 1.40,6.53 0.61,6.70 -0.19,6.68 -1.01,6.65 -1.79,6.43 -2.57,6.22 -3.28,5.82 -3.98,5.42 -4.57,4.86 -5.17,4.31 -5.61,3.63 -6.05,2.94 -6.31,2.18 -6.58,1.41 -6.65,0.60 -6.72,-0.20 -6.60,-1.00 -6.48,-1.80 -6.17,-2.55 -5.86,-3.30 -5.38,-3.95 -4.90,-4.61 -4.90,-4.61 L -4.90,-4.61 Z"/></g></svg>